<?xml version="1.0" standalone="no"?>
<!DOCTYPE svg PUBLIC "-//W3C//DTD SVG 20010904//EN"
 "http://www.w3.org/TR/2001/REC-SVG-20010904/DTD/svg10.dtd">
<svg version="1.0" xmlns="http://www.w3.org/2000/svg"
 width="1024.000000pt" height="1024.000000pt" viewBox="0 0 1024.000000 1024.000000"
 preserveAspectRatio="xMidYMid meet">

<g transform="translate(0.000000,1024.000000) scale(0.100000,-0.100000)"
fill="#000000" stroke="none">
<path d="M0 5120 l0 -5120 5120 0 5120 0 0 5120 0 5120 -5120 0 -5120 0 0
-5120z m6398 2878 c-3 -428 -4 -445 -24 -489 -32 -68 -88 -125 -155 -157 l-59
-29 37 -11 c93 -29 182 -127 202 -223 7 -30 11 -200 11 -430 l0 -379 -927 2
-928 3 0 245 0 245 708 0 707 0 0 132 c0 72 -5 144 -11 160 -11 31 -53 78 -84
96 -14 9 -202 13 -670 17 l-650 5 0 220 0 220 677 5 678 5 27 28 c32 31 40 91
35 245 l-4 92 -919 0 -919 0 0 -895 0 -895 -227 2 c-126 2 -227 6 -225 11 1 4
2 504 2 1112 l0 1105 1361 0 1360 0 -3 -442z m-1228 -2244 c102 -32 170 -128
170 -238 0 -131 -86 -233 -277 -330 l-53 -26 97 -133 c170 -233 226 -307 236
-307 25 0 108 127 147 224 39 97 40 157 4 185 -15 12 -40 21 -56 21 -26 0 -29
3 -26 28 l3 27 175 -4 c116 -2 177 -7 182 -15 15 -22 7 -34 -27 -40 -56 -11
-86 -46 -170 -206 -44 -83 -104 -183 -133 -221 -61 -80 -62 -73 31 -168 51
-53 133 -101 172 -101 47 -1 65 -12 65 -41 l0 -29 -179 0 -180 0 -46 60 c-25
33 -48 60 -50 60 -3 0 -35 -20 -73 -44 -37 -25 -97 -54 -133 -67 -80 -27 -233
-37 -321 -19 -123 24 -226 98 -275 199 -24 48 -28 68 -28 141 0 73 4 93 28
142 15 31 49 78 75 103 45 44 164 123 244 161 l37 17 -45 89 c-25 49 -52 117
-60 151 -68 264 185 471 466 381z m-990 -154 l0 -160 -29 0 c-27 0 -31 6 -55
68 -44 113 -93 146 -248 162 -105 11 -232 13 -265 4 l-23 -6 0 -284 0 -284
103 0 c196 0 288 47 312 158 6 27 11 32 36 32 l29 0 -2 -222 -3 -223 -25 -3
c-23 -3 -27 2 -38 44 -28 103 -96 134 -298 134 l-115 0 3 -265 3 -265 25 -25
c19 -19 40 -26 86 -31 57 -6 60 -8 56 -30 l-4 -24 -274 0 -274 0 0 25 c0 22 4
25 34 25 43 0 85 16 102 38 11 13 13 138 14 600 l0 583 -24 24 c-18 17 -40 26
-85 31 -56 6 -61 9 -61 30 l0 24 510 0 510 0 0 -160z m2442 146 c145 -26 235
-83 286 -181 21 -41 26 -64 26 -130 1 -70 -3 -86 -28 -133 -44 -79 -106 -123
-236 -167 l-65 -22 50 -7 c152 -22 273 -92 338 -198 30 -48 50 -145 42 -206
-19 -150 -112 -242 -299 -295 -64 -19 -107 -21 -438 -25 l-368 -4 0 25 c0 22
5 25 56 30 66 7 80 17 94 66 15 54 12 1096 -3 1141 -14 41 -45 58 -117 67 -44
5 -50 9 -50 29 l0 24 318 0 c224 -1 340 -5 394 -14z m1398 -1841 c0 -13 -329
-15 -2905 -15 -2576 0 -2905 2 -2905 15 0 13 329 15 2905 15 2576 0 2905 -2
2905 -15z m-4895 -427 c61 -11 111 -22 111 -22 1 -1 5 -54 9 -118 7 -114 7
-118 -13 -118 -15 0 -22 9 -27 33 -26 120 -122 187 -268 187 -73 0 -120 -13
-172 -49 -188 -127 -215 -487 -50 -669 57 -64 127 -95 220 -100 140 -7 244 52
282 158 11 30 23 49 31 48 16 -4 15 3 7 -113 l-7 -94 -62 -20 c-167 -56 -282
-64 -412 -31 -187 48 -303 178 -337 378 -23 138 26 290 127 400 128 138 308
180 561 130z m-1180 -58 c33 -96 272 -715 290 -750 18 -34 43 -50 79 -50 19 0
26 -5 26 -20 0 -19 -7 -20 -132 -21 -73 0 -154 -2 -180 -5 -46 -4 -48 -3 -48
20 0 20 6 25 31 28 54 5 56 24 19 134 -49 148 -28 134 -199 134 l-149 0 -36
-101 c-20 -55 -36 -109 -36 -119 0 -29 28 -50 66 -50 34 0 39 -6 29 -32 -4
-10 -36 -13 -138 -12 -123 1 -132 2 -132 20 0 13 8 20 25 22 48 7 40 -10 246
512 75 190 138 349 141 353 3 4 21 7 41 5 34 -3 36 -6 57 -68z m2069 -155
c164 -435 236 -610 257 -627 12 -10 35 -18 51 -18 24 0 29 -4 26 -21 -3 -20
-8 -21 -178 -21 -170 0 -175 1 -178 21 -3 17 2 21 21 21 69 0 71 21 20 166
l-37 104 -151 0 -151 0 -38 -110 c-37 -105 -38 -111 -22 -135 12 -19 25 -25
51 -25 30 0 35 -3 35 -23 l0 -24 -137 2 c-127 2 -138 3 -138 20 0 13 11 21 32
27 43 11 44 13 218 455 80 203 150 378 155 391 8 19 16 23 46 20 l36 -3 82
-220z m1127 187 c171 -68 265 -203 276 -397 14 -232 -109 -399 -338 -461 -85
-23 -546 -28 -554 -6 -8 21 0 27 36 30 71 6 69 -7 69 404 0 235 -4 376 -10
389 -6 11 -30 24 -55 30 -28 7 -45 17 -45 26 0 12 41 14 283 11 264 -3 285 -5
338 -26z m1129 -83 c0 -98 -2 -110 -17 -107 -9 2 -22 21 -30 45 -30 90 -79
113 -240 113 l-103 0 0 -180 0 -180 49 0 c58 0 148 16 178 31 11 6 29 29 39
51 11 25 23 38 33 36 14 -3 16 -25 19 -146 2 -135 2 -142 -17 -142 -13 0 -21
9 -26 29 -14 63 -74 90 -202 91 l-73 0 -1 -152 c-1 -181 0 -200 12 -213 6 -6
60 -10 122 -10 103 0 118 3 170 29 45 21 67 41 102 91 36 50 50 62 66 58 14
-4 18 -10 13 -22 -4 -9 -21 -62 -37 -118 l-31 -101 -340 1 c-318 2 -355 5
-356 28 0 4 20 10 45 14 78 11 76 0 73 424 -3 360 -4 373 -23 384 -11 7 -36
14 -55 17 -23 3 -36 11 -38 23 -3 16 18 17 332 17 l336 0 0 -111z m699 -196
c68 -170 130 -324 137 -343 l12 -35 10 25 c5 14 64 163 131 332 67 169 121
312 121 318 0 6 52 10 145 10 138 0 145 -1 145 -20 0 -14 -7 -20 -24 -20 -41
0 -86 -21 -91 -43 -7 -28 21 -717 30 -738 7 -19 47 -39 79 -39 28 0 35 -6 29
-28 -4 -15 -23 -17 -191 -17 -183 0 -187 0 -190 21 -3 18 3 22 40 27 23 3 48
13 54 22 13 17 9 462 -5 610 l-6 70 -33 -85 c-18 -47 -85 -217 -149 -377 -141
-354 -136 -350 -206 -178 -20 50 -68 169 -108 265 -40 96 -89 219 -109 273
l-37 99 -7 -64 c-14 -143 -26 -567 -17 -591 12 -31 39 -47 81 -47 27 0 31 -3
28 -22 -3 -22 -6 -22 -150 -23 -134 0 -147 2 -152 18 -5 19 -1 21 46 31 62 14
60 2 84 444 13 227 14 309 6 327 -8 17 -25 28 -57 36 -33 8 -45 16 -45 30 0
18 10 19 138 19 l138 0 123 -307z m1251 287 c0 -15 -7 -20 -26 -20 -14 0 -34
-5 -46 -11 -28 -15 -19 -41 61 -178 37 -64 80 -138 95 -165 l28 -48 65 118
c136 248 142 269 83 280 -21 5 -30 12 -30 25 0 18 10 19 135 19 128 0 135 -1
135 -20 0 -15 -7 -20 -29 -20 -17 0 -41 -10 -55 -22 -14 -13 -77 -115 -142
-228 -64 -113 -120 -209 -125 -214 -14 -16 -11 -309 4 -329 6 -10 32 -21 57
-25 34 -6 45 -12 45 -26 0 -17 -13 -18 -190 -19 -182 -1 -190 -1 -190 18 0 15
9 21 38 26 67 11 72 21 75 185 l4 146 -124 206 c-130 218 -168 266 -217 277
-22 5 -31 13 -31 26 0 18 9 19 190 19 183 0 190 -1 190 -20z"/>
<path d="M4945 5691 c-66 -40 -95 -125 -75 -224 13 -69 49 -160 86 -218 l24
-38 60 36 c78 46 127 103 147 172 30 103 -3 219 -76 268 -43 29 -122 31 -166
4z"/>
<path d="M4780 5046 c-138 -101 -185 -217 -144 -356 30 -102 104 -185 192
-214 64 -22 160 -20 233 4 60 21 132 60 144 79 7 12 -355 520 -370 520 -5 0
-30 -14 -55 -33z"/>
<path d="M6320 5410 l0 -270 70 0 c143 0 242 44 290 130 22 40 25 57 25 145 0
83 -4 107 -22 140 -49 92 -116 124 -260 125 l-103 0 0 -270z"/>
<path d="M6320 4760 l0 -302 134 4 c125 3 137 5 192 33 107 55 156 171 133
315 -27 171 -120 240 -336 248 l-123 4 0 -302z"/>
<path d="M1820 3266 c0 -7 -25 -80 -55 -161 -30 -82 -55 -150 -55 -152 0 -2
56 -3 125 -3 69 0 125 2 125 5 0 2 -17 49 -38 102 -21 54 -49 126 -62 161 -21
57 -40 81 -40 48z"/>
<path d="M3808 3188 c-20 -57 -47 -133 -61 -170 l-26 -68 124 0 c69 0 125 3
125 7 0 7 -120 326 -124 331 -2 1 -19 -44 -38 -100z"/>
<path d="M4803 3424 c-16 -7 -19 -769 -3 -779 5 -3 41 -9 79 -12 116 -10 217
25 288 99 99 102 120 342 44 503 -39 84 -72 120 -147 156 -55 27 -77 32 -157
35 -50 2 -98 1 -104 -2z"/>
</g>
</svg>
