<svg xmlns="http://www.w3.org/2000/svg" viewBox="0 0 400 300">
  <defs>
    <linearGradient id="buildingGrad" x1="0%" y1="0%" x2="100%" y2="100%">
      <stop offset="0%" style="stop-color:#4a90e2;stop-opacity:1" />
      <stop offset="100%" style="stop-color:#357abd;stop-opacity:1" />
    </linearGradient>
    <linearGradient id="skyGrad" x1="0%" y1="0%" x2="0%" y2="100%">
      <stop offset="0%" style="stop-color:#87ceeb;stop-opacity:1" />
      <stop offset="100%" style="stop-color:#4682b4;stop-opacity:1" />
    </linearGradient>
    <radialGradient id="signGrad" cx="50%" cy="30%" r="70%">
      <stop offset="0%" style="stop-color:#ff6b6b;stop-opacity:1" />
      <stop offset="100%" style="stop-color:#ee5a52;stop-opacity:1" />
    </radialGradient>
  </defs>
  
  <!-- Background -->
  <rect width="400" height="300" fill="url(#skyGrad)"/>
  
  <!-- Ground -->
  <rect x="0" y="250" width="400" height="50" fill="#228B22"/>
  
  <!-- Main building (headquarters) -->
  <rect x="150" y="120" width="100" height="130" fill="url(#buildingGrad)"/>
  <rect x="140" y="110" width="120" height="20" rx="10" fill="#2c3e50"/>
  
  <!-- Windows on main building -->
  <rect x="160" y="140" width="15" height="20" rx="2" fill="#fff" opacity="0.9"/>
  <rect x="180" y="140" width="15" height="20" rx="2" fill="#fff" opacity="0.9"/>
  <rect x="200" y="140" width="15" height="20" rx="2" fill="#fff" opacity="0.9"/>
  <rect x="220" y="140" width="15" height="20" rx="2" fill="#fff" opacity="0.9"/>
  
  <rect x="160" y="170" width="15" height="20" rx="2" fill="#fff" opacity="0.9"/>
  <rect x="180" y="170" width="15" height="20" rx="2" fill="#fff" opacity="0.9"/>
  <rect x="200" y="170" width="15" height="20" rx="2" fill="#fff" opacity="0.9"/>
  <rect x="220" y="170" width="15" height="20" rx="2" fill="#fff" opacity="0.9"/>
  
  <rect x="160" y="200" width="15" height="20" rx="2" fill="#fff" opacity="0.9"/>
  <rect x="180" y="200" width="15" height="20" rx="2" fill="#fff" opacity="0.9"/>
  <rect x="200" y="200" width="15" height="20" rx="2" fill="#fff" opacity="0.9"/>
  <rect x="220" y="200" width="15" height="20" rx="2" fill="#fff" opacity="0.9"/>
  
  <!-- Door -->
  <rect x="190" y="220" width="20" height="30" rx="10" fill="#8B4513"/>
  <circle cx="205" cy="235" r="2" fill="#FFD700"/>
  
  <!-- Franchise building 1 -->
  <rect x="50" y="180" width="60" height="70" fill="#50c878"/>
  <rect x="45" y="170" width="70" height="15" rx="7" fill="#2c3e50"/>
  
  <!-- Windows franchise 1 -->
  <rect x="60" y="190" width="10" height="15" rx="1" fill="#fff" opacity="0.9"/>
  <rect x="75" y="190" width="10" height="15" rx="1" fill="#fff" opacity="0.9"/>
  <rect x="90" y="190" width="10" height="15" rx="1" fill="#fff" opacity="0.9"/>
  
  <rect x="60" y="210" width="10" height="15" rx="1" fill="#fff" opacity="0.9"/>
  <rect x="75" y="210" width="10" height="15" rx="1" fill="#fff" opacity="0.9"/>
  <rect x="90" y="210" width="10" height="15" rx="1" fill="#fff" opacity="0.9"/>
  
  <!-- Door franchise 1 -->
  <rect x="75" y="230" width="15" height="20" rx="7" fill="#8B4513"/>
  
  <!-- Franchise building 2 -->
  <rect x="290" y="170" width="70" height="80" fill="#ff6b6b"/>
  <rect x="285" y="160" width="80" height="15" rx="7" fill="#2c3e50"/>
  
  <!-- Windows franchise 2 -->
  <rect x="300" y="180" width="12" height="18" rx="1" fill="#fff" opacity="0.9"/>
  <rect x="318" y="180" width="12" height="18" rx="1" fill="#fff" opacity="0.9"/>
  <rect x="336" y="180" width="12" height="18" rx="1" fill="#fff" opacity="0.9"/>
  
  <rect x="300" y="205" width="12" height="18" rx="1" fill="#fff" opacity="0.9"/>
  <rect x="318" y="205" width="12" height="18" rx="1" fill="#fff" opacity="0.9"/>
  <rect x="336" y="205" width="12" height="18" rx="1" fill="#fff" opacity="0.9"/>
  
  <!-- Door franchise 2 -->
  <rect x="318" y="230" width="18" height="20" rx="9" fill="#8B4513"/>
  
  <!-- Connection lines (franchise network) -->
  <line x1="150" y1="185" x2="110" y2="215" stroke="#FFD700" stroke-width="3" stroke-dasharray="5,5"/>
  <line x1="250" y1="185" x2="290" y2="210" stroke="#FFD700" stroke-width="3" stroke-dasharray="5,5"/>
  
  <!-- Network nodes -->
  <circle cx="150" cy="185" r="5" fill="#FFD700"/>
  <circle cx="110" cy="215" r="5" fill="#FFD700"/>
  <circle cx="250" cy="185" r="5" fill="#FFD700"/>
  <circle cx="290" cy="210" r="5" fill="#FFD700"/>
  
  <!-- Brand signs -->
  <rect x="170" y="90" width="60" height="15" rx="7" fill="url(#signGrad)"/>
  <text x="200" y="102" text-anchor="middle" fill="#fff" font-family="Arial, sans-serif" font-size="10" font-weight="bold">F&B ACADEMY</text>
  
  <rect x="60" y="150" width="40" height="12" rx="6" fill="url(#signGrad)"/>
  <text x="80" y="160" text-anchor="middle" fill="#fff" font-family="Arial, sans-serif" font-size="8" font-weight="bold">BRANCH 1</text>
  
  <rect x="310" y="140" width="40" height="12" rx="6" fill="url(#signGrad)"/>
  <text x="330" y="150" text-anchor="middle" fill="#fff" font-family="Arial, sans-serif" font-size="8" font-weight="bold">BRANCH 2</text>
  
  <!-- Growth arrows -->
  <path d="M120 160 L140 140 L135 145 L140 140 L145 145" fill="none" stroke="#50c878" stroke-width="2"/>
  <path d="M280 150 L260 130 L265 135 L260 130 L255 135" fill="none" stroke="#50c878" stroke-width="2"/>
  
  <!-- Money symbols -->
  <text x="30" y="40" fill="#50c878" font-family="Arial, sans-serif" font-size="20" font-weight="bold">$</text>
  <text x="360" y="50" fill="#50c878" font-family="Arial, sans-serif" font-size="18" font-weight="bold">$</text>
  <text x="200" y="30" fill="#50c878" font-family="Arial, sans-serif" font-size="22" font-weight="bold">$</text>
  
  <!-- Clouds -->
  <circle cx="80" cy="60" r="15" fill="#fff" opacity="0.8"/>
  <circle cx="95" cy="55" r="18" fill="#fff" opacity="0.8"/>
  <circle cx="110" cy="60" r="12" fill="#fff" opacity="0.8"/>
  
  <circle cx="300" cy="70" r="12" fill="#fff" opacity="0.8"/>
  <circle cx="315" cy="65" r="15" fill="#fff" opacity="0.8"/>
  <circle cx="330" cy="70" r="10" fill="#fff" opacity="0.8"/>
  
  <!-- Sparkles -->
  <circle cx="130" cy="100" r="2" fill="#FFD700"/>
  <circle cx="270" cy="90" r="1.5" fill="#FFD700"/>
  <circle cx="350" cy="120" r="2" fill="#FFD700"/>
  
  <!-- Text -->
  <text x="200" y="285" text-anchor="middle" fill="#fff" font-family="Arial, sans-serif" font-size="18" font-weight="bold">FRANCHISE TRAINING</text>
</svg>